<?xml version="1.0" encoding="iso-8859-1"?>
<!-- Generator: Adobe Illustrator 25.0.1, SVG Export Plug-In . SVG Version: 6.00 Build 0)  -->
<svg version="1.1" id="Warstwa_1" xmlns="http://www.w3.org/2000/svg" xmlns:xlink="http://www.w3.org/1999/xlink" x="0px" y="0px"
	 viewBox="0 0 398.588 55.052" enable-background="new 0 0 398.588 55.052" xml:space="preserve">
<g>
	<path fill="#343D8D" d="M71.651,20.524c0,2.029-0.366,2.861-1.929,3.659l-13.106,6.853v9.314c0,8.516-8.849,14.703-20.424,14.703
		c-12.308,0-20.358-5.754-20.358-14.603v-9.48l-8.582-4.557v11.41c0,1.862-1.164,2.661-3.626,2.661C1.031,40.483,0,39.684,0,37.822
		V20.558c0-1.796,0.532-2.462,1.929-3.193L33.962,0.699C34.96,0.167,35.459,0,36.091,0c0.532,0,1.064,0.167,2.062,0.699l31.568,16.2
		C71.318,17.73,71.651,18.562,71.651,20.524z M61.805,20.059L36.158,7.085L10.944,19.992l25.248,13.572L61.805,20.059z
		 M49.53,34.761l-11.277,5.888c-0.898,0.466-1.497,0.699-2.062,0.699c-0.632,0-1.131-0.2-2.096-0.699l-11.11-5.888v4.557
		c0,5.289,5.089,9.048,13.206,9.048c8.482,0,13.339-4.025,13.339-8.948V34.761z"/>
	<path fill="#E4422D" d="M83.623,48.533v-1.93c0-1.064,0.133-1.463,0.965-2.295c6.22-6.354,11.376-13.505,14.204-20.025
		L85.386,24.25c-1.064,0-1.697-0.599-1.664-1.663l0.133-3.326c0.033-1.064,0.599-1.663,1.663-1.663h20.823
		c1.064,0,1.664,0.599,1.664,1.663v1.098c0,0.798-0.1,1.264-0.433,2.162c-2.329,6.42-6.853,14.038-12.773,20.99h12.807
		c1.064,0,1.663,0.599,1.663,1.663v3.36c0,1.064-0.599,1.663-1.663,1.663h-22.32C84.222,50.196,83.623,49.597,83.623,48.533z
		 M91.141,7.385c0-2.761,1.83-4.424,4.857-4.424c3.027,0,4.856,1.664,4.856,4.424c0,2.96-1.83,4.657-4.856,4.657
		C92.97,12.042,91.141,10.345,91.141,7.385z"/>
	<path fill="#E4422D" d="M139.407,28.607v18.362c0,1.131-0.466,1.796-1.663,2.262c-3.227,1.264-7.252,2.029-10.844,2.029
		c-8.449,0-13.505-3.825-13.505-10.412c0-5.688,4.923-10.046,13.904-10.046c1.231,0,2.994,0.167,4.591,0.466v-1.896
		c0-3.659-2.395-6.054-7.119-6.054c-2.129,0-4.191,0.266-6.62,0.998c-0.333,0.1-0.565,0.133-0.765,0.133
		c-0.665,0-1.098-0.399-1.197-1.23l-0.366-3.493c-0.133-1.131,0.299-1.664,1.297-1.963c2.661-0.798,5.788-1.23,8.216-1.23
		C134.284,16.533,139.407,20.824,139.407,28.607z M131.889,44.242v-7.052c-1.264-0.333-2.628-0.532-3.925-0.532
		c-4.091,0-6.32,1.331-6.32,3.958c0,2.794,2.229,4.424,5.788,4.424C128.762,45.04,130.525,44.774,131.889,44.242z"/>
	<path fill="#E4422D" d="M175.663,50.196h-5.954c-0.998,0-1.53-0.333-2.162-1.364l-7.551-12.474h-3.892v12.175
		c0,1.064-0.599,1.663-1.663,1.663h-4.724c-1.064,0-1.663-0.599-1.663-1.663V4.99c0-1.064,0.599-1.663,1.663-1.663h4.724
		c1.064,0,1.663,0.599,1.663,1.663v24.05h4.025c2.994-3.359,5.622-7.085,7.484-10.146c0.632-1.031,1.231-1.297,2.395-1.297h5.289
		c1.197,0,1.63,0.765,0.931,1.996c-2.328,4.125-5.023,7.651-9.546,12.574l10.079,16C177.459,49.298,177.027,50.196,175.663,50.196z"
		/>
</g>
<g>
	<path fill="#343D8D" d="M299.986,15.755v1.141c0,0.304-0.171,0.475-0.475,0.475h-7.206c-0.305,0-0.476-0.171-0.476-0.475V5.013
		c0-0.304,0.171-0.476,0.476-0.476h1.464c0.305,0,0.476,0.171,0.476,0.476V15.28h5.267C299.815,15.28,299.986,15.451,299.986,15.755
		z"/>
	<path fill="#343D8D" d="M311.615,17.371h-1.521c-0.285,0-0.418-0.133-0.513-0.418l-0.923-2.804h-4.639
		c-0.304,0.941-0.589,1.882-0.865,2.823c-0.085,0.285-0.257,0.399-0.599,0.399h-1.388c-0.343,0-0.504-0.228-0.399-0.551
		c1.388-4.211,2.909-7.89,4.81-11.883c0.152-0.314,0.305-0.399,0.628-0.399h1.131c0.295,0,0.457,0.114,0.542,0.361l4.154,11.959
		C312.157,17.2,311.938,17.371,311.615,17.371z M304.704,12.124h3.289c-0.656-2.044-1.131-3.736-1.436-5.038
		C305.864,8.882,305.255,10.536,304.704,12.124z"/>
	<path fill="#343D8D" d="M321.855,5.013v1.15c0,0.304-0.171,0.476-0.476,0.476h-3.612v10.257c0,0.304-0.171,0.475-0.475,0.475
		h-1.427c-0.304,0-0.475-0.171-0.475-0.475V6.639h-3.612c-0.305,0-0.476-0.171-0.476-0.476v-1.15c0-0.304,0.171-0.476,0.476-0.476
		h9.601C321.684,4.538,321.855,4.709,321.855,5.013z"/>
	<path fill="#343D8D" d="M301.051,24.625c0,2.538-2.13,4.677-5.771,4.677c-0.323,0-0.732-0.028-1.094-0.085v3.679
		c0,0.304-0.171,0.475-0.475,0.475h-1.407c-0.305,0-0.476-0.171-0.476-0.475V21.127c0-0.38,0.143-0.542,0.494-0.608
		c0.885-0.171,1.968-0.285,2.871-0.285C299.13,20.233,301.051,22.325,301.051,24.625z M298.542,24.739
		c0-1.483-1.018-2.434-3.242-2.434c-0.342,0-0.798,0.048-1.112,0.105v4.667c0.409,0.076,0.855,0.114,1.274,0.114
		C297.41,27.192,298.542,26.232,298.542,24.739z"/>
	<path fill="#343D8D" d="M302.468,27.135c0-4.154,2.558-6.901,6.189-6.901c3.583,0,6.074,2.586,6.074,6.541
		c0,4.154-2.558,6.901-6.188,6.901C304.978,33.675,302.468,31.09,302.468,27.135z M312.26,27.002c0-2.842-1.455-4.715-3.679-4.715
		c-2.11,0-3.642,1.711-3.642,4.62c0,2.842,1.455,4.658,3.65,4.658C310.739,31.565,312.26,29.911,312.26,27.002z"/>
	<path fill="#343D8D" d="M317.194,32.896c0.114-2.795,0.58-7.596,1.112-11.883c0.038-0.304,0.181-0.476,0.485-0.476h1.92
		c0.257,0,0.476,0.104,0.552,0.333l2.225,6.264c0.408,1.141,0.722,2.054,1.093,3.375c0.352-1.283,1.15-3.708,1.606-4.924
		l1.759-4.706c0.086-0.228,0.295-0.342,0.561-0.342h1.863c0.305,0,0.457,0.171,0.476,0.476l0.685,11.826
		c0.019,0.361-0.171,0.532-0.494,0.532h-1.245c-0.333,0-0.495-0.171-0.514-0.542l-0.361-9.202c-0.447,1.273-0.741,2.043-1.245,3.479
		l-2.082,5.913c-0.086,0.228-0.285,0.352-0.542,0.352h-1.273c-0.257,0-0.466-0.114-0.542-0.342l-2.006-5.742
		c-0.494-1.417-0.855-2.434-1.188-3.66c-0.38,4.24-0.542,6.625-0.646,9.269c-0.01,0.304-0.181,0.475-0.484,0.475h-1.236
		C317.366,33.371,317.185,33.2,317.194,32.896z"/>
	<path fill="#343D8D" d="M344.104,33.371h-1.521c-0.285,0-0.418-0.133-0.513-0.418l-0.923-2.804h-4.639
		c-0.304,0.941-0.589,1.882-0.865,2.823c-0.085,0.285-0.257,0.399-0.599,0.399h-1.388c-0.343,0-0.504-0.228-0.399-0.551
		c1.388-4.211,2.909-7.89,4.81-11.883c0.152-0.314,0.305-0.399,0.628-0.399h1.131c0.295,0,0.457,0.114,0.542,0.361l4.154,11.959
		C344.646,33.2,344.427,33.371,344.104,33.371z M337.193,28.124h3.289c-0.656-2.044-1.131-3.736-1.436-5.038
		C338.353,24.882,337.745,26.536,337.193,28.124z"/>
	<path fill="#343D8D" d="M345.503,27.059c0-4.04,3.005-6.826,6.684-6.826c1.188,0,2.376,0.266,3.27,0.732
		c0.2,0.104,0.285,0.247,0.285,0.418c0,0.076-0.019,0.171-0.057,0.266l-0.438,1.16c-0.057,0.152-0.181,0.228-0.323,0.228
		c-0.095,0-0.237-0.038-0.38-0.114c-0.741-0.399-1.512-0.608-2.415-0.608c-2.072,0-4.173,1.502-4.173,4.629
		c0,2.871,1.863,4.61,4.449,4.61c0.513,0,1.112-0.124,1.559-0.304v-2.985h-2.576c-0.304,0-0.476-0.171-0.476-0.475v-1.084
		c0-0.304,0.172-0.475,0.476-0.475h4.202c0.332,0,0.504,0.171,0.504,0.504v5.457c0,0.304-0.124,0.513-0.438,0.685
		c-0.903,0.494-2.263,0.798-3.508,0.798C348.137,33.675,345.503,30.804,345.503,27.059z"/>
	<path fill="#343D8D" d="M368.481,33.371h-1.521c-0.285,0-0.418-0.133-0.513-0.418l-0.923-2.804h-4.639
		c-0.304,0.941-0.589,1.882-0.865,2.823c-0.085,0.285-0.257,0.399-0.599,0.399h-1.388c-0.343,0-0.504-0.228-0.399-0.551
		c1.388-4.211,2.909-7.89,4.81-11.883c0.152-0.314,0.305-0.399,0.628-0.399h1.131c0.295,0,0.457,0.114,0.542,0.361l4.154,11.959
		C369.023,33.2,368.804,33.371,368.481,33.371z M361.57,28.124h3.289c-0.656-2.044-1.131-3.736-1.436-5.038
		C362.73,24.882,362.122,26.536,361.57,28.124z"/>
	<path fill="#343D8D" d="M370.641,32.896c0.113-2.795,0.579-7.596,1.111-11.883c0.038-0.304,0.181-0.476,0.485-0.476h1.92
		c0.257,0,0.476,0.104,0.552,0.333l2.225,6.264c0.408,1.141,0.722,2.054,1.093,3.375c0.352-1.283,1.15-3.708,1.606-4.924
		l1.759-4.706c0.086-0.228,0.295-0.342,0.561-0.342h1.863c0.305,0,0.457,0.171,0.476,0.476l0.685,11.826
		c0.019,0.361-0.171,0.532-0.494,0.532h-1.245c-0.333,0-0.495-0.171-0.514-0.542l-0.361-9.202c-0.447,1.273-0.741,2.043-1.245,3.479
		l-2.082,5.913c-0.086,0.228-0.285,0.352-0.542,0.352h-1.273c-0.257,0-0.466-0.114-0.542-0.342l-2.006-5.742
		c-0.494-1.417-0.855-2.434-1.188-3.66c-0.38,4.24-0.542,6.625-0.646,9.269c-0.01,0.304-0.181,0.475-0.484,0.475h-1.236
		C370.812,33.371,370.631,33.2,370.641,32.896z"/>
	<path fill="#343D8D" d="M397.142,21.108c-0.97,1.939-2.187,4.088-4.201,7.206v4.582c0,0.304-0.172,0.475-0.476,0.475h-1.426
		c-0.305,0-0.476-0.171-0.476-0.475v-4.573l-4.269-7.187c-0.076-0.124-0.095-0.219-0.095-0.285c0-0.181,0.124-0.314,0.399-0.314
		h1.701c0.323,0,0.457,0.104,0.628,0.399l3.014,5.333c1.207-2.158,1.986-3.641,2.785-5.343c0.143-0.304,0.304-0.39,0.637-0.39h1.53
		c0.209,0,0.323,0.114,0.323,0.295C397.218,20.908,397.2,20.984,397.142,21.108z"/>
	<path fill="#343D8D" d="M290.213,48.392c0-0.495,0.076-0.789,0.343-1.065c2.767-2.89,5.133-6.378,6.16-8.755l-5.761-0.01
		c-0.353,0-0.514-0.181-0.504-0.637l0.009-0.818c0-0.361,0.181-0.57,0.514-0.57h7.757c0.504,0,0.761,0.247,0.761,0.799
		c0,0.466-0.01,0.751-0.219,1.198c-1.359,2.928-3.337,5.846-5.837,8.736h6.094c0.352,0,0.522,0.181,0.522,0.627l-0.009,0.903
		c0,0.361-0.181,0.57-0.514,0.57h-8.717C290.452,49.371,290.213,49.01,290.213,48.392z"/>
	<path fill="#343D8D" d="M311.492,49.371h-1.521c-0.285,0-0.418-0.133-0.513-0.418l-0.923-2.804h-4.639
		c-0.304,0.941-0.589,1.882-0.865,2.823c-0.085,0.285-0.257,0.399-0.599,0.399h-1.388c-0.343,0-0.504-0.228-0.399-0.551
		c1.388-4.211,2.909-7.89,4.81-11.883c0.152-0.314,0.305-0.399,0.628-0.399h1.131c0.295,0,0.457,0.114,0.542,0.361l4.154,11.959
		C312.034,49.2,311.815,49.371,311.492,49.371z M304.581,44.124h3.289c-0.656-2.044-1.131-3.736-1.436-5.038
		C305.741,40.882,305.132,42.536,304.581,44.124z"/>
	<path fill="#343D8D" d="M312.235,36.538h1.625c0.295,0,0.438,0.114,0.514,0.418l1.379,5.542c0.332,1.34,0.561,2.453,0.751,3.803
		c0.218-1.265,0.808-3.147,1.397-4.953l1.026-3.127c0.104-0.323,0.275-0.447,0.627-0.447h1.283c0.276,0,0.438,0.124,0.542,0.438
		l1.246,3.926c0.418,1.331,0.912,3.08,1.159,4.164c0.713-3.575,1.236-6.73,1.55-9.364c0.038-0.295,0.199-0.399,0.484-0.399h1.397
		c0.352,0,0.456,0.209,0.399,0.551c-0.675,4.041-1.54,7.748-2.719,11.864c-0.095,0.333-0.267,0.418-0.608,0.418h-1.265
		c-0.294,0-0.475-0.104-0.579-0.438l-1.56-5.019c-0.323-1.036-0.58-1.949-0.827-3.156c-0.219,1.112-0.561,2.253-0.846,3.146
		l-1.645,5.067c-0.096,0.304-0.285,0.399-0.608,0.399h-1.293c-0.295,0-0.485-0.114-0.552-0.361l-3.241-11.921
		C311.779,36.747,311.912,36.538,312.235,36.538z"/>
	<path fill="#343D8D" d="M328.86,43.135c0-4.154,2.558-6.901,6.189-6.901c3.583,0,6.074,2.586,6.074,6.541
		c0,4.154-2.558,6.901-6.188,6.901C331.37,49.675,328.86,47.09,328.86,43.135z M338.652,43.002c0-2.842-1.455-4.715-3.679-4.715
		c-2.11,0-3.642,1.711-3.642,4.62c0,2.842,1.455,4.658,3.65,4.658C337.13,47.565,338.652,45.911,338.652,43.002z"/>
	<path fill="#343D8D" d="M344.08,49.371c-0.267-0.066-0.399-0.247-0.399-0.523V36.994c0-0.285,0.133-0.466,0.419-0.514
		c0.94-0.152,2.072-0.247,2.994-0.247c5.02,0,7.215,2.976,7.215,6.483c0,3.964-2.757,6.958-7.443,6.958
		C345.876,49.675,344.917,49.58,344.08,49.371z M351.875,42.859c0-2.861-1.663-4.61-4.411-4.61c-0.398,0-0.94,0.038-1.368,0.133
		v9.069c0.285,0.086,0.713,0.133,1.159,0.133C349.897,47.584,351.875,45.949,351.875,42.859z"/>
	<path fill="#343D8D" d="M356.201,43.135c0-4.154,2.558-6.901,6.189-6.901c3.583,0,6.074,2.586,6.074,6.541
		c0,4.154-2.558,6.901-6.188,6.901C358.71,49.675,356.201,47.09,356.201,43.135z M365.993,43.002c0-2.842-1.455-4.715-3.679-4.715
		c-2.11,0-3.642,1.711-3.642,4.62c0,2.842,1.455,4.658,3.65,4.658C364.471,47.565,365.993,45.911,365.993,43.002z"/>
	<path fill="#343D8D" d="M369.701,36.538h1.625c0.295,0,0.438,0.114,0.514,0.418l1.379,5.542c0.332,1.34,0.561,2.453,0.751,3.803
		c0.218-1.265,0.808-3.147,1.397-4.953l1.026-3.127c0.104-0.323,0.275-0.447,0.627-0.447h1.283c0.276,0,0.438,0.124,0.542,0.438
		l1.245,3.926c0.419,1.331,0.913,3.08,1.16,4.164c0.713-3.575,1.236-6.73,1.55-9.364c0.038-0.295,0.199-0.399,0.484-0.399h1.397
		c0.352,0,0.456,0.209,0.399,0.551c-0.675,4.041-1.54,7.748-2.719,11.864c-0.095,0.333-0.267,0.418-0.608,0.418h-1.265
		c-0.294,0-0.475-0.104-0.579-0.438l-1.56-5.019c-0.323-1.036-0.58-1.949-0.827-3.156c-0.219,1.112-0.561,2.253-0.846,3.146
		l-1.645,5.067c-0.096,0.304-0.285,0.399-0.608,0.399h-1.293c-0.295,0-0.485-0.114-0.552-0.361l-3.241-11.921
		C369.245,36.747,369.377,36.538,369.701,36.538z"/>
	<path fill="#343D8D" d="M386.325,43.135c0-4.154,2.558-6.901,6.189-6.901c3.583,0,6.074,2.586,6.074,6.541
		c0,4.154-2.558,6.901-6.188,6.901C388.834,49.675,386.325,47.09,386.325,43.135z M396.117,43.002c0-2.842-1.455-4.715-3.679-4.715
		c-2.11,0-3.642,1.711-3.642,4.62c0,2.842,1.455,4.658,3.65,4.658C394.595,47.565,396.117,45.911,396.117,43.002z"/>
</g>
<g>
	<path fill="#343D8D" d="M228.43,38.644c10.898-10.967,13.717-16.605,13.717-21.521c0-5.81-4.125-9.694-9.488-9.694
		c-3.128,0-6.394,1.1-9.66,3.609c-0.618,0.481-1.169,0.413-1.409-0.068l-0.791-1.513c-0.24-0.481-0.206-0.859,0.241-1.203
		c3.541-2.682,7.666-4.057,11.757-4.057c7.563,0,13.063,4.985,13.063,12.789c0,5.294-2.509,10.966-14.542,23.136l-6.841,6.91h22.896
		c0.653,0,1.031,0.378,1.031,1.031v1.169c0,0.653-0.378,1.031-1.031,1.031h-25.439c-0.928,0-1.513-0.55-1.513-1.513v-0.997
		c0-0.791,0.172-1.237,0.791-1.856L228.43,38.644z"/>
	<path fill="#343D8D" d="M250.23,27.815c0-15.608,7.288-23.618,15.299-23.618c10.072,0,15.367,9.969,15.367,22.93
		c0,15.951-7.323,24.236-15.229,24.236C255.662,51.364,250.23,41.119,250.23,27.815z M277.114,27.643
		c0-14.026-5.569-20.146-11.585-20.146c-5.569,0-11.517,5.26-11.517,19.733c0,14.438,5.706,20.695,11.654,20.695
		C271.132,47.926,277.114,42.529,277.114,27.643z"/>
</g>
<rect x="199.043" fill="#343D8D" width="3" height="55"/>
<g>
</g>
<g>
</g>
<g>
</g>
<g>
</g>
<g>
</g>
<g>
</g>
<g>
</g>
<g>
</g>
<g>
</g>
<g>
</g>
<g>
</g>
<g>
</g>
<g>
</g>
<g>
</g>
<g>
</g>
</svg>
