<?xml version="1.0" encoding="UTF-8"?>
<!-- Generator: Adobe Illustrator 25.0.0, SVG Export Plug-In . SVG Version: 6.00 Build 0)  -->
<svg version="1.1" id="Warstwa_1" xmlns="http://www.w3.org/2000/svg" xmlns:xlink="http://www.w3.org/1999/xlink" x="0px" y="0px" viewBox="0 0 200 52" enable-background="new 0 0 200 52" xml:space="preserve">
<g>
	<path fill="#009247" d="M56.19,3.36c0,1.18-0.21,1.97-0.63,2.39c-0.42,0.41-1.18,0.63-2.29,0.63c-1.08,0-1.82-0.21-2.23-0.61   s-0.61-1.2-0.61-2.38S50.65,1.42,51.07,1c0.42-0.41,1.18-0.63,2.28-0.63c1.08,0,1.82,0.2,2.23,0.61   C55.99,1.39,56.19,2.18,56.19,3.36z M55.53,47.96c0,0.15-0.04,0.28-0.11,0.4c-0.07,0.13-0.19,0.22-0.35,0.29   c-0.16,0.08-0.38,0.14-0.67,0.19c-0.28,0.05-0.64,0.07-1.09,0.07c-0.42,0-0.77-0.02-1.05-0.07s-0.51-0.11-0.68-0.19   c-0.17-0.08-0.29-0.17-0.35-0.29c-0.06-0.13-0.09-0.26-0.09-0.4V14.6c0-0.15,0.03-0.28,0.09-0.4c0.06-0.13,0.18-0.23,0.35-0.32   c0.17-0.08,0.4-0.15,0.68-0.18c0.28-0.04,0.63-0.05,1.05-0.05c0.44,0,0.8,0.02,1.09,0.05c0.28,0.03,0.5,0.1,0.67,0.18   c0.16,0.09,0.28,0.19,0.35,0.32c0.07,0.12,0.11,0.26,0.11,0.4V47.96z"/>
	<path fill="#009247" d="M91.98,29.56c0,0.88-0.23,1.49-0.7,1.83c-0.47,0.33-0.92,0.5-1.36,0.5H67.18c0,2.06,0.2,3.93,0.61,5.6   s1.07,3.1,2.01,4.29c0.94,1.19,2.15,2.11,3.65,2.74c1.5,0.64,3.34,0.96,5.53,0.96c1.55,0,2.93-0.14,4.17-0.4   c1.23-0.27,2.29-0.57,3.19-0.91c0.89-0.33,1.63-0.63,2.21-0.9s0.99-0.41,1.24-0.41c0.15,0,0.28,0.04,0.41,0.11   c0.12,0.07,0.22,0.19,0.29,0.35s0.13,0.36,0.17,0.61s0.05,0.56,0.05,0.92c0,0.17-0.01,0.34-0.04,0.5   c-0.02,0.16-0.05,0.31-0.09,0.44c-0.04,0.14-0.09,0.27-0.17,0.39c-0.07,0.13-0.17,0.25-0.29,0.37s-0.5,0.34-1.14,0.64   c-0.64,0.31-1.48,0.62-2.51,0.92c-1.03,0.31-2.23,0.58-3.59,0.83c-1.36,0.25-2.83,0.37-4.41,0.37c-2.58,0-4.87-0.39-6.86-1.16   s-3.66-1.92-5.01-3.43c-1.35-1.51-2.38-3.38-3.08-5.62c-0.7-2.24-1.05-4.83-1.05-7.77c0-2.83,0.36-5.36,1.09-7.59   c0.73-2.24,1.76-4.14,3.12-5.7c1.35-1.56,2.98-2.75,4.88-3.57c1.9-0.82,4.02-1.24,6.36-1.24c2.51,0,4.65,0.42,6.41,1.25   c1.77,0.83,3.23,1.96,4.37,3.37s1.98,3.05,2.5,4.92c0.53,1.87,0.79,3.84,0.79,5.9v0.89H91.98z M87.45,28.28   c0.07-3.54-0.74-6.31-2.43-8.29C83.32,18,80.86,17,77.61,17c-1.67,0-3.14,0.32-4.41,0.94c-1.27,0.62-2.33,1.46-3.21,2.49   c-0.87,1.03-1.54,2.23-2.01,3.59s-0.74,2.79-0.81,4.26C67.17,28.28,87.45,28.28,87.45,28.28z"/>
	<path fill="#8BC541" d="M162.46,43.02c0,0.29-0.02,0.56-0.04,0.8c-0.03,0.23-0.07,0.44-0.12,0.61c-0.05,0.17-0.13,0.33-0.22,0.46   c-0.09,0.14-0.32,0.37-0.67,0.68c-0.35,0.32-0.94,0.73-1.77,1.22c-0.82,0.5-1.75,0.92-2.78,1.29c-1.03,0.37-2.14,0.67-3.33,0.9   c-1.19,0.23-2.42,0.35-3.7,0.35c-2.55,0-4.8-0.39-6.76-1.16c-1.96-0.77-3.61-1.92-4.93-3.43c-1.33-1.51-2.33-3.37-3.03-5.56   c-0.69-2.2-1.04-4.74-1.04-7.61c0-3.24,0.43-6.02,1.28-8.33s2.02-4.2,3.51-5.67c1.49-1.48,3.23-2.56,5.22-3.26   c1.99-0.7,4.12-1.05,6.39-1.05c1.22,0,2.38,0.1,3.49,0.32c1.11,0.21,2.13,0.49,3.07,0.83c0.93,0.34,1.77,0.74,2.5,1.18   c0.73,0.44,1.27,0.82,1.6,1.12c0.34,0.31,0.57,0.54,0.69,0.7c0.13,0.16,0.22,0.34,0.29,0.53c0.07,0.2,0.11,0.41,0.14,0.64   s0.04,0.51,0.04,0.83c0,0.71-0.11,1.21-0.34,1.49s-0.48,0.43-0.75,0.43c-0.38,0-0.85-0.22-1.4-0.67c-0.55-0.44-1.27-0.93-2.13-1.46   c-0.86-0.52-1.91-1.01-3.15-1.46c-1.23-0.44-2.7-0.66-4.41-0.66c-3.52,0-6.23,1.23-8.14,3.68c-1.91,2.46-2.86,6.01-2.86,10.65   c0,2.33,0.26,4.38,0.77,6.14c0.51,1.76,1.25,3.22,2.21,4.39s2.13,2.04,3.51,2.62c1.38,0.58,2.93,0.86,4.67,0.86   c1.62,0,3.06-0.23,4.3-0.7c1.24-0.46,2.33-0.98,3.25-1.55c0.92-0.56,1.69-1.08,2.3-1.54c0.61-0.47,1.06-0.7,1.36-0.7   c0.16,0,0.31,0.04,0.43,0.13c0.13,0.09,0.22,0.22,0.31,0.4c0.08,0.19,0.14,0.4,0.18,0.67C162.44,42.37,162.46,42.67,162.46,43.02z"/>
	<path fill="#8BC541" d="M200,30.93c0,2.66-0.34,5.1-1.03,7.34s-1.72,4.18-3.08,5.82c-1.36,1.65-3.07,2.93-5.11,3.85   s-4.41,1.39-7.11,1.39c-2.6,0-4.88-0.41-6.84-1.24c-1.96-0.82-3.59-2-4.9-3.53c-1.31-1.54-2.3-3.4-2.95-5.59S168,34.32,168,31.56   c0-2.65,0.34-5.1,1.01-7.33c0.68-2.24,1.69-4.17,3.06-5.81c1.36-1.63,3.07-2.9,5.11-3.81s4.42-1.36,7.15-1.36   c2.6,0,4.89,0.41,6.84,1.22s3.58,1.99,4.88,3.52c1.3,1.54,2.29,3.4,2.95,5.59C199.67,25.75,200,28.2,200,30.93z M195.36,31.34   c0-1.89-0.19-3.7-0.55-5.42c-0.37-1.72-0.98-3.23-1.84-4.55c-0.86-1.31-2.01-2.36-3.46-3.13c-1.45-0.77-3.26-1.16-5.42-1.16   c-1.99,0-3.71,0.35-5.16,1.07c-1.45,0.71-2.63,1.7-3.56,2.97c-0.92,1.27-1.6,2.75-2.05,4.48c-0.44,1.72-0.66,3.57-0.66,5.56   c0,1.91,0.18,3.74,0.55,5.47c0.37,1.73,0.98,3.25,1.84,4.55s2.02,2.33,3.46,3.1c1.45,0.76,3.26,1.14,5.42,1.14   c1.99,0,3.71-0.35,5.16-1.06c1.45-0.71,2.64-1.7,3.56-2.95s1.6-2.74,2.05-4.46C195.14,35.22,195.36,33.35,195.36,31.34z"/>
	<path fill="#8BC541" d="M20.79,11.17c0,0-5.37,1.52-8.4-4.72c0,0,6.73-2.72,8.93,4.01c0,0-3.1,0.03-6.16-2.58   C15.16,7.88,16.73,10.13,20.79,11.17z"/>
	<path fill="#8BC541" d="M1.58,36.18c0,0,5,2.48,3.06,9.14c0,0-6.81-2.5-3.93-8.96c0,0,2.32,2.05,2.83,6.05   C3.54,42.41,3.89,39.69,1.58,36.18z"/>
	<path fill="#8BC541" d="M4.37,24.41C8.25,16.34,17.93,12.94,26,16.82c2.69,1.29,4.86,3.23,6.41,5.55   c-1.49-3.46-4.19-6.41-7.84-8.17c-8.07-3.88-17.75-0.48-21.63,7.59C0.35,27.16,1,33.26,4.11,37.87   C2.31,33.71,2.25,28.82,4.37,24.41z"/>
	<path fill="#006938" d="M43.1,1.33c-0.07-0.13-0.2-0.22-0.37-0.29c-0.17-0.08-0.4-0.14-0.68-0.19s-0.65-0.07-1.09-0.07   c-0.39,0-0.73,0.02-1.01,0.07s-0.52,0.11-0.7,0.19c-0.19,0.07-0.32,0.17-0.41,0.29c-0.08,0.13-0.13,0.26-0.13,0.4v19.04   c-0.6-1.43-1.41-2.8-2.44-4.06c-3.79-4.61-9.58-6.59-15.08-5.72c4.54,0.12,8.99,2.13,12.1,5.91c5.68,6.92,4.68,17.13-2.24,22.81   c-2.3,1.9-4.98,3.04-7.73,3.48c3.76,0.1,7.57-1.1,10.71-3.67c2.13-1.75,3.69-3.92,4.68-6.3v14.73c0,0.15,0.04,0.28,0.11,0.4   c0.07,0.13,0.2,0.22,0.37,0.29c0.17,0.08,0.4,0.14,0.7,0.19c0.29,0.05,0.65,0.07,1.07,0.07c0.44,0,0.8-0.02,1.09-0.07   c0.28-0.05,0.51-0.11,0.68-0.19c0.17-0.08,0.29-0.17,0.37-0.29c0.07-0.13,0.11-0.26,0.11-0.4V1.74C43.21,1.59,43.18,1.46,43.1,1.33   z"/>
	<path fill="#009247" d="M25.54,48.67c-8.84,1.62-17.3-4.13-18.91-12.85c-0.53-2.9-0.23-5.77,0.73-8.37   c-1.93,3.22-2.74,7.1-2.01,11.05c1.6,8.72,10.06,14.47,18.9,12.85c5.89-1.08,10.46-5.17,12.38-10.36   C34.31,44.87,30.37,47.79,25.54,48.67z"/>
	<path fill="#8BC541" d="M16.24,23.44c-0.76,1.58-2.65,2.24-4.22,1.48c-1.58-0.76-2.24-2.65-1.48-4.22   c0.76-1.58,2.65-2.24,4.22-1.48C16.33,19.97,17,21.86,16.24,23.44z"/>
	<path fill="#8BC541" d="M191.66,40.26c-0.76,1.58-2.65,2.24-4.22,1.48c-1.58-0.76-2.24-2.65-1.48-4.22   c0.76-1.58,2.65-2.24,4.22-1.48C191.75,36.8,192.42,38.69,191.66,40.26z"/>
	<path fill="#006938" d="M33.18,28.07c-0.76,1.58-2.65,2.24-4.22,1.48c-1.58-0.76-2.24-2.65-1.48-4.22s2.65-2.24,4.22-1.48   C33.27,24.6,33.94,26.49,33.18,28.07z"/>
	<path fill="#009247" d="M21.08,43.43c-0.76,1.57-2.65,2.24-4.22,1.48c-1.58-0.76-2.24-2.65-1.48-4.22s2.65-2.24,4.22-1.48   C21.18,39.96,21.84,41.85,21.08,43.43z"/>
	<path fill="#8BC541" d="M174.17,17.71c0,0-5.37,1.52-8.4-4.72c0,0,6.73-2.72,8.92,4.01c0,0-3.1,0.04-6.16-2.58   C168.53,14.41,170.1,16.66,174.17,17.71z"/>
	<path fill="#009247" d="M127.31,0.98c-0.41-0.41-1.15-0.61-2.23-0.61c-1.11,0-1.87,0.21-2.29,0.63s-0.63,1.22-0.63,2.39   s0.2,1.97,0.61,2.38c0.41,0.4,1.15,0.61,2.23,0.61c1.1,0,1.87-0.21,2.28-0.63c0.42-0.42,0.63-1.22,0.63-2.39   C127.92,2.18,127.72,1.39,127.31,0.98z"/>
	<path fill="#009247" d="M125.82,13.83h-1.91c-1.05,0-1.04,1.58-1.04,1.58v2.15v8.24v22.17c0,0.15,0.04,0.28,0.11,0.4   c0.07,0.13,0.19,0.22,0.35,0.29c0.16,0.08,0.38,0.14,0.66,0.19c0.28,0.05,0.64,0.07,1.09,0.07c0.42,0,0.77-0.02,1.05-0.07   c0.28-0.05,0.5-0.11,0.66-0.19c0.16-0.08,0.28-0.17,0.35-0.29c0.07-0.13,0.11-0.26,0.11-0.4V15.41c0-0.49-0.1-0.88-0.29-1.16   C126.76,13.97,126.38,13.83,125.82,13.83z"/>
	<path fill="#009247" d="M114.56,44.66c-0.06-0.14-0.14-0.23-0.24-0.28s-0.21-0.07-0.33-0.07c-0.2,0-0.42,0.06-0.68,0.19   c-0.26,0.12-0.57,0.26-0.94,0.4c-0.37,0.15-0.79,0.28-1.27,0.4c-0.48,0.13-1.01,0.19-1.6,0.19c-1.92,0-3.24-0.67-3.96-1.99   c-0.73-1.33-1.09-3.26-1.09-5.79V17.55h13.64c0.93-0.11,0.94-1.54,0.94-1.54V15.4c0,0,0.01-1.58-1.04-1.58h-13.55V5.64   c0-0.15-0.04-0.28-0.11-0.4s-0.19-0.23-0.35-0.31c-0.16-0.09-0.38-0.15-0.67-0.19c-0.28-0.04-0.64-0.05-1.09-0.05   c-0.42,0-0.77,0.02-1.05,0.05c-0.28,0.04-0.51,0.1-0.68,0.19c-0.17,0.08-0.29,0.19-0.35,0.31c-0.06,0.13-0.09,0.26-0.09,0.4v8.18   h-4.98c-0.17,0-0.32,0.04-0.46,0.11c-0.13,0.07-0.25,0.19-0.35,0.35c-0.1,0.16-0.17,0.35-0.22,0.59c-0.05,0.23-0.07,0.51-0.07,0.83   c0,0.62,0.1,1.07,0.29,1.38c0.2,0.31,0.47,0.46,0.81,0.46h4.98V38.3c0,1.87,0.16,3.49,0.5,4.87c0.33,1.38,0.87,2.52,1.6,3.41   c0.74,0.9,1.68,1.57,2.84,2.01c1.16,0.45,2.56,0.67,4.2,0.67c0.49,0,1-0.03,1.51-0.09c0.52-0.06,1.01-0.15,1.47-0.26   c0.47-0.11,0.88-0.25,1.24-0.4c0.35-0.16,0.63-0.33,0.81-0.52c0.19-0.19,0.32-0.44,0.41-0.76c0.08-0.32,0.13-0.74,0.13-1.25   c0-0.32-0.02-0.58-0.05-0.79C114.67,44.97,114.62,44.8,114.56,44.66z"/>
</g>
</svg>