<?xml version="1.0" encoding="UTF-8"?>
<!-- Generator: Adobe Illustrator 25.0.0, SVG Export Plug-In . SVG Version: 6.00 Build 0)  -->
<svg version="1.1" id="Warstwa_1" xmlns="http://www.w3.org/2000/svg" xmlns:xlink="http://www.w3.org/1999/xlink" x="0px" y="0px" viewBox="0 0 200 65" enable-background="new 0 0 200 65" xml:space="preserve">
<g>
	<g id="a5e38f65-9a61-49ce-8e04-9db03c6c729a">
		<g>
			<path fill="#22C8CF" d="M0.57,56.91c0.35,0.35,0.82,0.55,1.32,0.54h3.53c0.5,0.01,0.97-0.18,1.32-0.54     c0.35-0.35,0.55-0.82,0.54-1.32V36.48l6.88,19.24c0.2,0.49,0.54,0.92,0.97,1.24c0.41,0.33,0.91,0.51,1.44,0.51h2.79     c0.53,0,1.03-0.19,1.44-0.51c0.43-0.32,0.77-0.75,0.96-1.25l6.9-19.24v19.11c-0.03,1.01,0.77,1.85,1.78,1.87     c0.02,0,0.04,0,0.06,0h3.51c0.5,0.01,0.97-0.18,1.32-0.54c0.35-0.35,0.55-0.82,0.54-1.32V31.28c0.01-0.49-0.18-0.96-0.52-1.32     c-0.33-0.36-0.79-0.56-1.27-0.55h-8.01c-0.53,0.01-1.04,0.2-1.45,0.55c-0.43,0.33-0.76,0.79-0.92,1.32l-5.77,16.67l-5.77-16.7     c-0.16-0.52-0.48-0.98-0.92-1.32c-0.4-0.35-0.92-0.55-1.45-0.56H1.85c-0.5-0.01-0.98,0.18-1.32,0.55     C0.18,30.27-0.01,30.76,0,31.26v24.29c-0.01,0.5,0.19,0.97,0.55,1.32L0.57,56.91z M51.25,57.82c7.13,0,10.7-1.87,10.7-5.6     c0.02-0.65-0.48-1.19-1.13-1.21h-3c-0.93,0.01-1.8,0.45-2.37,1.19c-0.64,0.78-1.83,1.17-3.56,1.19s-2.98-0.35-3.75-1.09     c-0.78-0.73-1.24-1.9-1.38-3.51h14.69c0.64,0.01,1.16-0.49,1.19-1.13v-1.2c0-3.52-1-6.2-3.01-8.05s-4.8-2.79-8.39-2.81     c-3.59,0-6.39,0.96-8.4,2.89c-2.02,1.92-3.03,4.68-3.03,8.26c0,3.59,1,6.33,3.01,8.23c1.98,1.9,4.81,2.85,8.4,2.85L51.25,57.82z      M51.25,40.03c2.89,0,4.4,1.54,4.53,4.61H46.7c0.16-3.08,1.68-4.61,4.57-4.61H51.25z M81.8,55.63v0.61     c-0.01,0.32,0.11,0.62,0.34,0.85c0.22,0.23,0.54,0.36,0.86,0.34h3.76c0.65,0.02,1.19-0.49,1.21-1.13c0-0.02,0-0.04,0-0.06V30.59     c0.03-0.65-0.47-1.19-1.12-1.22h-4.42c-0.65-0.01-1.18,0.5-1.19,1.15c0,0.02,0,0.04,0,0.06v6.01c-1.82-0.61-3.73-0.95-5.65-1     c-3.21,0-5.76,0.96-7.66,2.87c-1.89,1.91-2.84,4.66-2.85,8.24c0,3.59,0.92,6.34,2.75,8.25c1.76,1.88,4.24,2.92,6.82,2.87     c2.56,0.05,5.08-0.72,7.18-2.19C81.83,55.63,81.8,55.63,81.8,55.63z M76.95,40.32c1.44,0.05,2.87,0.32,4.24,0.78v10.26     c-1.88,1.17-3.52,1.77-4.94,1.76c-1.25,0.08-2.46-0.5-3.17-1.53c-0.71-1.01-1.06-2.64-1.06-4.88c0-2.23,0.38-3.85,1.11-4.86     C73.87,40.84,75.14,40.33,76.95,40.32L76.95,40.32z"/>
			<path fill="#22C8CF" d="M165.51,43.63h-9.09c0.16-3.08,1.68-4.61,4.57-4.61C163.87,39.02,165.37,40.55,165.51,43.63z"/>
			<path fill="#22C8CF" d="M178.96,12.79c0.61,0.71,0.66,1.03,0.57,4.29l-0.09,3.43H99.12L99,17.44c-0.16-4.61,0.47-5.59,3.8-5.83     l1.75-0.13v-1.06c-0.04-0.62,0.2-1.23,0.66-1.65l0.66-0.59h19.39l0.8,0.66c0.53,0.39,0.83,1.02,0.8,1.68v0.99h24.75     c17.04,0,25.04,0.07,25.7,0.24C177.95,11.95,178.52,12.31,178.96,12.79z M174.61,20.5v-7.61h-68.5v7.61H174.61z"/>
			<path fill="#22C8CF" d="M183.14,21.46c0.8,0.54,0.82,0.59,0.66,2.76c-0.05,0.94-0.15,1.87-0.31,2.79     c-0.17,0.66-0.76,4.11-0.95,5.58c-0.07,0.55-0.22,1.36-0.32,1.79c-0.11,0.43-0.33,1.85-0.49,3.14s-0.35,2.64-0.42,2.91     c-0.07,0.27-0.29,1.57-0.49,2.8c-0.2,1.23-0.42,2.59-0.5,3.03c-0.22,1.17-0.43,2.55-0.75,4.92c-0.16,1.17-0.36,2.38-0.43,2.69     c-0.07,0.31-0.3,1.61-0.5,2.91s-0.42,2.64-0.5,3.03c-0.08,0.4-0.2,1.03-0.26,1.46c-0.24,1.61-0.57,2.19-1.52,2.71l-0.98,0.53     l-36.25,0.03c-32.29,0-36.39,0-37.36-0.32c-1.63-0.53-2.09-1.46-2.33-4.75c-0.04-0.98-0.14-1.95-0.3-2.91     c-0.14-0.59-0.24-1.19-0.29-1.8c-0.2-1.75-0.83-6.59-0.93-7.16c0-0.18-0.15-0.79-0.27-1.32c-0.12-0.53-0.28-1.92-0.38-3.03     c-0.18-2.12-0.21-2.34-0.66-5.04c-0.12-0.61-0.18-1.23-0.2-1.85c0.07-0.18-0.49-4.42-0.71-5.43c-0.15-0.66-0.74-6.08-0.82-7.51     c-0.07-1.42,0.97-2.41,2.91-2.64l1.32-0.16v-0.11h80.34v0.09l1.44,0.14C181.69,20.82,182.45,21.06,183.14,21.46z M172.39,47.2     v-1.12c0-3.49-1-6.18-3.01-8.05c-2-1.88-4.8-2.81-8.39-2.81s-6.39,0.96-8.41,2.89c-2.02,1.92-3.03,4.68-3.03,8.26     c0,3.59,1,6.33,3.01,8.23c2.01,1.9,4.81,2.85,8.41,2.85c7.12,0,10.69-1.87,10.7-5.6c0.01-0.65-0.49-1.18-1.14-1.21h-2.99     c-0.93,0-1.81,0.44-2.37,1.19c-0.64,0.78-1.82,1.17-3.56,1.17c-1.74,0-3-0.37-3.78-1.12c-0.78-0.72-1.25-1.9-1.38-3.5h14.72     c0.64,0.03,1.19-0.47,1.21-1.12l0,0l0,0v-0.09L172.39,47.2z M145.95,55.88V30.21c0.02-0.65-0.49-1.2-1.14-1.22     c-0.02,0-0.04,0-0.05,0h-4.34c-0.65-0.01-1.18,0.5-1.19,1.15c0,0.02,0,0.04,0,0.07v25.66c-0.01,0.64,0.5,1.18,1.15,1.19l0,0h4.43     c0.65,0.01,1.18-0.51,1.19-1.16l0,0L145.95,55.88z M134.38,31.53v-0.66c0.1-1.14-0.75-2.15-1.89-2.25     c-0.12-0.01-0.24-0.01-0.36,0h-2.43c-1.14-0.1-2.15,0.75-2.25,1.89c-0.01,0.12-0.01,0.24,0,0.36v0.66     c-0.09,1.15,0.76,2.16,1.91,2.25c0.11,0.01,0.22,0.01,0.34,0h2.43c1.14,0.1,2.15-0.75,2.25-1.89     C134.39,31.77,134.39,31.65,134.38,31.53z M134.3,55.91V37.3c0.01-0.32-0.11-0.63-0.34-0.86s-0.54-0.35-0.86-0.34h-4.38     c-0.65-0.01-1.18,0.51-1.19,1.15c0,0.01,0,0.03,0,0.04v18.58c-0.03,0.62,0.46,1.15,1.08,1.19h4.49c0.63,0.02,1.16-0.47,1.19-1.11     l0,0v-0.08L134.3,55.91L134.3,55.91z M123.88,32.78V30.6c0-0.3-0.12-0.59-0.33-0.8c-0.48-0.33-1.03-0.52-1.6-0.57     c-1.49-0.2-2.98-0.28-4.48-0.24c-4.16,0-7.07,0.76-8.72,2.28c-1.65,1.52-2.48,4.1-2.48,7.74v17.24     c-0.03,0.63,0.45,1.16,1.08,1.19h4.49c0.32,0.01,0.62-0.11,0.85-0.33c0.23-0.23,0.35-0.54,0.34-0.86V44.07h7.08     c0.32,0.01,0.64-0.11,0.87-0.33c0.23-0.23,0.36-0.54,0.34-0.86v-2.33c0-0.63-0.49-1.15-1.13-1.18h-7.16v-0.32     c0-2.19,0.4-3.63,1.17-4.34s2.47-1.05,5.07-1.04l2.7,0.33h0.72c0.32,0.01,0.63-0.12,0.85-0.34     C123.77,33.43,123.89,33.11,123.88,32.78L123.88,32.78z"/>
		</g>
	</g>
	<g>
		<g>
			<path d="M200,6.21c0,3.17-2.57,5.75-5.75,5.75c-3.17,0-5.75-2.57-5.75-5.75s2.57-5.75,5.75-5.75C197.43,0.47,200,3.04,200,6.21z      M198.89,6.21c0-2.56-2.07-4.63-4.63-4.63s-4.63,2.07-4.63,4.63s2.07,4.63,4.63,4.63C196.82,10.85,198.89,8.78,198.89,6.21z      M196.57,9.37h-0.99c-0.09,0-0.2-0.07-0.25-0.15l-1.1-2.07h-0.74v1.94c0,0.15-0.12,0.28-0.28,0.28h-0.89     c-0.15,0-0.28-0.12-0.28-0.28V3.33c0-0.15,0.12-0.28,0.28-0.28h1.82c1.65,0,2.35,0.76,2.35,1.98c0,0.73-0.35,1.37-0.91,1.7     c0.07,0.11,0.01,0,1.23,2.23C196.91,9.14,196.78,9.37,196.57,9.37z M195.03,5.09c0-0.45-0.15-0.73-0.9-0.73h-0.63v1.49h0.78     C194.76,5.84,195.03,5.57,195.03,5.09z"/>
		</g>
	</g>
</g>
</svg>